<?xml version="1.0" encoding="utf-8"?>
<!-- Generator: Adobe Illustrator 16.0.4, SVG Export Plug-In . SVG Version: 6.00 Build 0)  -->
<!DOCTYPE svg PUBLIC "-//W3C//DTD SVG 1.1//EN" "http://www.w3.org/Graphics/SVG/1.1/DTD/svg11.dtd">
<svg version="1.1" id="Layer_1" xmlns="http://www.w3.org/2000/svg" xmlns:xlink="http://www.w3.org/1999/xlink" x="0px" y="0px"
	 width="841.889px" height="595.281px" viewBox="0 0 841.889 595.281" enable-background="new 0 0 841.889 595.281"
	 xml:space="preserve">
<text transform="matrix(1 0 0 1 395.9397 286.8855)" font-family="'Atures700PERSONALUSEONLY'" font-size="109">REST</text>
<g>
	<polygon fill="#343434" points="192.592,148.331 190.714,155.393 190.714,360.31 192.592,362.385 278.567,306.16 	"/>
	<polygon fill="#8C8C8C" points="192.593,148.331 106.618,306.16 192.593,362.385 192.593,262.925 	"/>
	<polygon fill="#3C3C3B" points="192.592,380.396 191.534,381.823 191.534,454.819 192.592,458.24 278.617,324.198 	"/>
	<polygon fill="#8C8C8C" points="192.593,458.238 192.593,380.394 106.618,324.197 	"/>
	<polygon fill="#141414" points="192.592,362.385 278.565,306.16 192.592,262.926 	"/>
	<polygon fill="#393939" points="106.619,306.16 192.592,362.385 192.592,262.926 	"/>
</g>
<text transform="matrix(1 0 0 1 365.9397 395.8855)" font-family="'Atures700PERSONALUSEONLY'" font-size="109">CHAIN</text>
<path d="M332.368,285.306c1.618-4.704,2.744-10.009,3.378-15.919c0.633-5.908,0.946-13.051,0.946-21.425v-25.127
	c0-10.212,0.22-17.784,0.652-22.718c0.435-4.932,1.067-8.805,1.896-11.616c0.831-2.812,1.917-4.705,3.261-5.679
	c1.344-0.975,2.96-1.463,4.856-1.463l4.862-0.171c0.631,0,1.203-0.173,1.717-0.517c0.516-0.344,0.949-0.975,1.305-1.893
	s0.611-2.037,0.771-3.356c0.156-1.318,0.236-2.953,0.236-4.904c0-1.835-0.08-3.414-0.236-4.732c-0.16-1.32-0.416-2.382-0.771-3.186
	c-0.355-0.802-0.789-1.404-1.305-1.806c-0.514-0.403-1.048-0.603-1.601-0.603c-1.424-0.459-2.624-0.718-3.615-0.775
	c-0.987-0.057-2.232-0.085-3.731-0.085c-5.215,0-9.5,1.233-12.86,3.701c-3.356,2.467-6.042,6.166-8.058,11.1
	c-2.015,4.934-3.397,11.074-4.148,18.415c-0.751,7.343-1.126,17.038-1.126,29.085v27.709c0,14.226-1.441,24.982-4.325,32.269
	c-2.884,7.285-7.25,11.387-13.096,12.305c-0.711,0.23-1.305,0.518-1.777,0.86c-0.475,0.345-0.85,0.946-1.126,1.807
	s-0.476,1.922-0.593,3.186c-0.119,1.262-0.178,2.811-0.178,4.645c0,1.722,0.079,3.243,0.237,4.563
	c0.158,1.316,0.375,2.379,0.651,3.182c0.277,0.805,0.652,1.406,1.125,1.806c0.476,0.403,1.067,0.72,1.777,0.948
	c3.083,0.459,5.71,1.806,7.882,4.046c2.174,2.234,3.951,5.162,5.334,8.773c1.383,3.617,2.41,7.833,3.081,12.65
	c0.671,4.82,1.007,11.132,1.007,18.932v35.453c0,12.163,0.354,21.913,1.067,29.256c0.711,7.346,2.055,13.452,4.029,18.328
	c1.977,4.876,4.662,8.549,8.058,11.015c3.399,2.465,7.745,3.702,13.038,3.702c1.499,0,2.785-0.028,3.852-0.085
	c1.065-0.06,2.31-0.318,3.731-0.776c0.475,0,0.947-0.23,1.422-0.688c0.475-0.455,0.892-1.063,1.247-1.809
	c0.355-0.744,0.611-1.776,0.771-3.098c0.156-1.32,0.236-2.897,0.236-4.731c0-2.064-0.08-3.758-0.236-5.075
	c-0.16-1.32-0.416-2.409-0.771-3.272c-0.355-0.857-0.811-1.461-1.363-1.806c-0.553-0.344-1.184-0.517-1.895-0.517l-4.979-0.172
	c-1.818,0-3.379-0.517-4.683-1.548c-1.304-1.034-2.371-2.955-3.2-5.765c-0.829-2.814-1.441-6.684-1.837-11.619
	c-0.394-4.935-0.594-12.451-0.594-22.545V360.86c0-8.492-0.313-15.661-0.946-21.513c-0.634-5.852-1.76-11.159-3.378-15.919
	c-1.619-4.762-3.773-8.835-6.459-12.222c-2.687-3.383-6.083-5.649-10.192-6.797c4.109-1.263,7.506-3.585,10.192-6.97
	C328.594,294.055,330.749,290.011,332.368,285.306z"/>
<path d="M765.463,299.56c-0.112-1.197-0.322-2.222-0.625-3.078c-0.304-0.855-0.683-1.512-1.139-1.966
	c-0.454-0.456-0.987-0.687-1.594-0.687c-2.962-0.57-5.488-1.566-7.574-2.991c-2.087-1.427-3.797-3.448-5.124-6.072
	c-1.326-2.622-2.317-5.9-2.961-9.833c-0.644-3.934-0.966-9.777-0.966-17.53v-35.232c0-12.085-0.361-21.777-1.084-29.073
	c-0.723-7.298-2.031-13.369-3.928-18.215c-1.899-4.847-4.479-8.493-7.744-10.945c-3.265-2.452-7.403-3.677-12.414-3.677
	c-1.441,0-2.653,0.028-3.645,0.085c-0.985,0.057-2.125,0.314-3.416,0.771c-0.683,0-1.271,0.198-1.764,0.599
	c-0.494,0.399-0.91,0.998-1.252,1.795c-0.342,0.798-0.608,1.853-0.798,3.165c-0.191,1.31-0.285,2.879-0.285,4.703
	c0,2.052,0.077,3.735,0.228,5.045c0.153,1.31,0.418,2.395,0.799,3.249c0.38,0.855,0.853,1.455,1.423,1.796
	c0.568,0.342,1.272,0.514,2.105,0.514l4.556,0.17c1.747,0,3.246,0.514,4.498,1.539c1.254,1.028,2.278,2.937,3.076,5.73
	c0.796,2.794,1.387,6.612,1.764,11.459c0.379,4.845,0.571,12.34,0.571,22.489v32.496c0,8.437,0.322,15.163,0.966,20.18
	c0.644,5.018,1.727,9.435,3.245,13.256c1.521,3.819,3.588,6.982,6.206,9.491c2.62,2.507,5.865,4.333,9.736,5.474
	c-3.871,1.254-7.116,3.934-9.736,8.038c-2.618,4.104-4.686,9.005-6.206,14.708c-1.519,5.702-2.602,11.859-3.245,18.471
	s-0.966,14.136-0.966,22.575v24.968c0,10.151-0.192,17.677-0.571,22.578c-0.377,4.897-0.987,8.722-1.822,11.457
	c-0.833,2.735-1.897,4.616-3.188,5.644c-1.289,1.027-2.845,1.54-4.667,1.54l-4.899,0.171c-0.53,0-1.021,0.17-1.479,0.514
	c-0.456,0.344-0.855,0.969-1.197,1.882c-0.342,0.912-0.625,2.02-0.852,3.332c-0.229,1.312-0.344,2.936-0.344,4.876
	c0,1.823,0.114,3.392,0.344,4.703c0.227,1.312,0.492,2.339,0.793,3.076c0.309,0.742,0.686,1.346,1.14,1.8
	c0.456,0.451,0.952,0.682,1.482,0.682c1.519,0.343,2.771,0.575,3.756,0.687c0.991,0.111,2.203,0.17,3.645,0.17
	c4.936,0,9.037-1.228,12.299-3.679c3.265-2.451,5.848-6.127,7.742-11.027c1.9-4.907,3.229-11.009,3.988-18.302
	c0.758-7.296,1.141-16.934,1.141-28.901v-27.536c0-8.211,0.264-15.139,0.795-20.778c0.531-5.647,1.462-10.748,2.791-15.309
	c1.328-4.562,3.055-8.294,5.18-11.204c2.126-2.905,4.784-4.59,7.972-5.044c0.608-0.112,1.138-0.37,1.594-0.771
	c0.456-0.397,0.816-0.995,1.083-1.795c0.267-0.801,0.456-1.826,0.568-3.078c0.114-1.256,0.171-2.795,0.171-4.618
	C765.634,302.268,765.577,300.758,765.463,299.56z"/>
</svg>
